# xmcd
#
# Track frame offsets: 
#        150
#        14394
#        27059
#        38000
#        48712
#        57255
#        67310
#        77177
#        89128
#        99681
#        112218
#        120833
#        130349
#        142239
#
# Disc length: 2006 seconds
#
# Revision: 2
# Processed by: cddbd v1.5.2PL0 Copyright (c) Steve Scherf et al.
# Submitted via: ExactAudioCopy v1.0b3
#
DISCID=d007d40e
DTITLE=Williams, Larry - Specialty Profiles - Larry Williams [Disc 1]
DYEAR=2006
DGENRE=Rock 'n' Roll
TTITLE0=Bony Moronie
TTITLE1=Just Because
TTITLE2=Short Fat Fannie
TTITLE3=High School Dance
TTITLE4=You Bug Me Baby
TTITLE5=Dizzy, Miss Lizzy
TTITLE6=Rockin' Pneumonia And The Boogie Woogie Flu
TTITLE7=Hootchy-Koo
TTITLE8=Bad Boy
TTITLE9=Slow Down
TTITLE10=Little School Girl
TTITLE11=Ting-A-Ling
TTITLE12=Let Me Tell You, Baby
TTITLE13=She Said Yeah
EXTD=
EXTT0=
EXTT1=
EXTT2=
EXTT3=
EXTT4=
EXTT5=
EXTT6=
EXTT7=
EXTT8=
EXTT9=
EXTT10=
EXTT11=
EXTT12=
EXTT13=
PLAYORDER=
